<svg id="Layer_1" enable-background="new 0 0 512 512" height="512" viewBox="0 0 512 512" width="512" xmlns="http://www.w3.org/2000/svg"><g><g><path d="m484 406.711h-456c-11.046 0-20-8.954-20-20v-318.432c0-11.046 8.954-20 20-20h456c11.046 0 20 8.954 20 20v318.432c0 11.045-8.954 20-20 20z" fill="#86dcff"/><path d="m484 388.711h-456c-11.046 0-20-8.954-20-20v18c0 11.046 8.954 20 20 20h456c11.046 0 20-8.954 20-20v-18c0 11.045-8.954 20-20 20z" fill="#56caed"/><path d="m467.18 339.286v-223.583c-16.903 0-30.605-13.702-30.605-30.605h-361.15c0 16.903-13.702 30.605-30.605 30.605v223.583c16.903 0 30.605 13.702 30.605 30.605h361.151c-.001-16.903 13.702-30.605 30.604-30.605z" fill="#f2fdff"/><path d="m69.566 351.891c3.681 5.052 5.859 11.271 5.859 18h361.151c0-6.729 2.177-12.948 5.859-18z" fill="#d3ecf5"/><ellipse cx="256" cy="348.358" fill="#ff5876" rx="58.372" ry="58.372" transform="matrix(.163 -.987 .987 .163 -129.456 544.096)"/><path d="m256 388.73c-29.177 0-53.351-21.408-57.68-49.372-.454 2.934-.692 5.939-.692 9 0 32.238 26.134 58.372 58.372 58.372s58.372-26.134 58.372-58.372c0-3.061-.238-6.066-.692-9-4.329 27.964-28.503 49.372-57.68 49.372z" fill="#e6485d"/><circle cx="256" cy="348.358" fill="#ffcf4d" r="29.145"/><path d="m256 359.503c-12.954 0-23.929-8.455-27.722-20.145-.92 2.835-1.423 5.858-1.423 9 0 16.096 13.049 29.145 29.145 29.145s29.145-13.049 29.145-29.145c0-3.142-.503-6.165-1.423-9-3.793 11.691-14.768 20.145-27.722 20.145z" fill="#ffb629"/><path d="m256 406.73c-11.993 0-23.138-3.622-32.41-9.824v66.815l32.41-15.395 32.41 15.395v-66.815c-9.272 6.203-20.417 9.824-32.41 9.824z" fill="#ffcf4d"/><path d="m256 406.73c-11.993 0-23.138-3.622-32.41-9.824v18c9.272 6.202 20.417 9.824 32.41 9.824s23.138-3.622 32.41-9.824v-18c-9.272 6.203-20.417 9.824-32.41 9.824z" fill="#ffb629"/></g><g><g><path d="m319.395 158.994c4.15 0 7.515-3.364 7.515-7.515s-3.365-7.515-7.515-7.515h-126.79c-4.15 0-7.515 3.364-7.515 7.515s3.365 7.515 7.515 7.515z"/><path d="m89.342 200.328c0 4.151 3.364 7.515 7.515 7.515h318.287c4.15 0 7.515-3.364 7.515-7.515s-3.365-7.515-7.515-7.515h-318.287c-4.151.001-7.515 3.365-7.515 7.515z"/><path d="m141.945 241.664c-4.15 0-7.515 3.364-7.515 7.515s3.365 7.515 7.515 7.515h228.111c4.15 0 7.515-3.364 7.515-7.515s-3.365-7.515-7.515-7.515z"/><path d="m256 311.813c-20.246 0-36.716 16.471-36.716 36.716s16.471 36.717 36.716 36.717c20.246 0 36.717-16.472 36.717-36.717s-16.471-36.716-36.717-36.716zm0 58.404c-11.958 0-21.687-9.729-21.687-21.688 0-11.958 9.729-21.687 21.687-21.687s21.687 9.729 21.687 21.687c0 11.959-9.729 21.688-21.687 21.688z"/><path d="m484.446 40.348h-114.391c-4.15 0-7.515 3.364-7.515 7.515s3.365 7.515 7.515 7.515h114.391c6.906 0 12.524 5.618 12.524 12.525v319.055c0 6.906-5.618 12.525-12.524 12.525h-84.332c-4.15 0-7.515 3.364-7.515 7.515s3.365 7.515 7.515 7.515h84.332c15.193 0 27.554-12.361 27.554-27.554v-319.057c0-15.193-12.361-27.554-27.554-27.554z"/><path d="m370.055 399.481h-72.175c7.223-5.948 13.165-13.394 17.345-21.862h121.704c4.15 0 7.515-3.364 7.515-7.515 0-12.765 10.385-23.151 23.15-23.151 4.15 0 7.515-3.364 7.515-7.515v-224.02c0-4.151-3.365-7.515-7.515-7.515-12.765 0-23.15-10.385-23.15-23.15 0-4.151-3.364-7.515-7.515-7.515h-279.955c-4.15 0-7.515 3.364-7.515 7.515s3.365 7.515 7.515 7.515h273.182c3.013 15.036 14.885 26.909 29.922 29.922v210.477c-15.037 3.013-26.91 14.885-29.922 29.923h-109.67c.988-4.532 1.514-9.236 1.514-14.061 0-36.392-29.608-66-66-66s-66.001 29.608-66.001 66c0 4.825.525 9.528 1.514 14.061h-109.67c-3.013-15.037-14.885-26.91-29.922-29.923v-210.477c15.037-3.013 26.91-14.885 29.922-29.922h45.072c4.15 0 7.515-3.364 7.515-7.515s-3.364-7.515-7.515-7.515h-51.844c-4.15 0-7.515 3.364-7.515 7.515 0 12.765-10.385 23.15-23.15 23.15-4.15 0-7.515 3.364-7.515 7.515v224.021c0 4.151 3.364 7.515 7.515 7.515 12.765 0 23.15 10.385 23.15 23.151 0 4.151 3.364 7.515 7.515 7.515h121.704c4.179 8.468 10.121 15.915 17.345 21.862h-186.566c-6.906 0-12.524-5.618-12.524-12.525v-319.055c0-6.906 5.618-12.525 12.524-12.525h312.443c4.15 0 7.515-3.364 7.515-7.515s-3.365-7.515-7.515-7.515h-312.443c-15.193.001-27.554 12.362-27.554 27.555v319.055c0 15.193 12.361 27.554 27.554 27.554h188.458v49.608c-.159 5.351 5.975 9.227 10.739 6.788l29.249-13.895 29.248 13.894c4.758 2.44 10.901-1.437 10.739-6.788v-49.608h74.068c4.15 0 7.515-3.364 7.515-7.515s-3.365-7.514-7.515-7.514zm-89.097 52.748-21.734-10.324c-2.041-.969-4.408-.969-6.449 0l-21.734 10.324v-42.614c7.705 3.16 16.129 4.915 24.958 4.915 8.83 0 17.253-1.756 24.958-4.915v42.614zm-24.958-52.728c-28.106 0-50.971-22.866-50.971-50.972s22.865-50.971 50.971-50.971 50.971 22.865 50.971 50.971-22.865 50.972-50.971 50.972z"/></g></g></g></svg>