<svg id="Layer_1" enable-background="new 0 0 512 512" height="512" viewBox="0 0 512 512" width="512" xmlns="http://www.w3.org/2000/svg"><g><g><path d="m489.631 453.613h-467.262c-8.284 0-15-6.716-15-15v-305.258h497.262v305.258c0 8.284-6.716 15-15 15z" fill="#d5e0f2"/><path d="m489.631 435.613h-467.262c-8.284 0-15-6.716-15-15v18c0 8.284 6.716 15 15 15h467.262c8.284 0 15-6.716 15-15v-18c0 8.284-6.716 15-15 15z" fill="#bdcde5"/><path d="m489.631 58.387h-467.262c-8.284 0-15 6.716-15 15v59.968h497.262v-59.968c0-8.284-6.716-15-15-15z" fill="#2d4456"/><path d="m7.369 115.355h497.262v18h-497.262z" fill="#253847"/><path d="m256.003 410.55h-146.324c-8.284 0-15-6.716-15-15v-163.673c0-8.284 6.716-15 15-15h146.324z" fill="#405b6c"/><path d="m94.679 377.55v18c0 8.284 6.716 15 15 15h146.324v-18h-146.324c-8.285 0-15-6.716-15-15z" fill="#2d4456"/><path d="m256.003 410.55h146.324c8.284 0 15-6.716 15-15v-163.673c0-8.284-6.716-15-15-15h-146.324z" fill="#2d4456"/><path d="m256.007 202.042-.007.062v-.062s-45.503-51.607-127.304 0v178.858c81.801-51.607 127.304 0 127.304 0v-.086l.007.086s45.503-51.607 127.304 0v-178.858c-81.802-51.607-127.304 0-127.304 0z" fill="#f2fdff"/><path d="m402.328 392.55h-146.325v18h146.324c8.284 0 15-6.716 15-15v-18c.001 8.284-6.715 15-14.999 15z" fill="#253847"/><path d="m256.007 362.9-.007.005v-.005s-45.503-51.607-127.304 0v18c81.801-51.607 127.304 0 127.304 0v-.01l.007.01s45.503-51.607 127.304 0v-18c-81.802-51.608-127.304 0-127.304 0z" fill="#e4eef9"/></g><g><g><path d="m489.512 50.992h-467.023c-12.4 0-22.489 10.088-22.489 22.488v292.363c0 4.14 3.356 7.496 7.496 7.496s7.496-3.356 7.496-7.496v-224.93h482.015v297.607c0 4.134-3.363 7.496-7.496 7.496h-467.022c-4.134 0-7.496-3.363-7.496-7.496v-42.691c0-4.14-3.356-7.496-7.496-7.496-4.141 0-7.496 3.356-7.496 7.496v42.691c0 12.4 10.089 22.488 22.489 22.488h467.023c12.4 0 22.488-10.088 22.488-22.488v-365.04c-.001-12.4-10.09-22.488-22.489-22.488zm-474.52 74.93v-52.442c0-4.134 3.363-7.496 7.496-7.496h467.023c4.134 0 7.496 3.363 7.496 7.496v52.441h-482.015z"/><ellipse cx="53.031" cy="95.225" rx="12.566" ry="12.566" transform="matrix(.707 -.707 .707 .707 -51.802 65.389)"/><ellipse cx="90.628" cy="95.225" rx="12.566" ry="12.566" transform="matrix(.973 -.23 .23 .973 -19.454 23.369)"/><ellipse cx="128.226" cy="95.225" rx="12.566" ry="12.566" transform="matrix(.707 -.707 .707 .707 -29.777 118.561)"/><path d="m387.245 195.73c-24.626-15.536-62.036-31.65-100.424-20.186-14.591 4.358-24.958 11.447-30.818 16.304-5.86-4.857-16.227-11.946-30.819-16.304-38.382-11.464-75.798 4.65-100.424 20.186-2.177 1.373-3.496 3.767-3.496 6.34v7.331h-11.511c-12.4 0-22.489 10.088-22.489 22.488v163.589c0 12.4 10.089 22.489 22.489 22.489h292.499c12.4 0 22.488-10.088 22.488-22.489v-29.352c0-4.14-3.356-7.496-7.496-7.496s-7.496 3.356-7.496 7.496v29.352c0 4.134-3.363 7.496-7.496 7.496h-138.753v-19.006c3.856-3.53 13.546-11.258 28.387-15.519 26.299-7.549 55.692-1.251 87.36 18.727 4.745 3.205 11.676-.621 11.496-6.34v-156.442h11.511c4.134 0 7.496 3.363 7.496 7.496v104.252c0 4.14 3.356 7.496 7.496 7.496 4.141 0 7.496-3.356 7.496-7.496v-104.252c0-12.4-10.089-22.488-22.488-22.488h-11.511v-7.331c0-2.574-1.32-4.968-3.497-6.341zm-284.988 199.748v-163.588c0-4.134 3.362-7.496 7.496-7.496h11.511v25.612c0 4.14 3.356 7.496 7.496 7.496s7.496-3.356 7.496-7.496v-43.752c30.334-18.268 58.533-23.843 83.863-16.571 14.84 4.262 24.535 11.993 28.383 15.513v159.904c-5.872-3.835-13.673-7.909-23.318-10.789-32.815-9.802-64.917.552-88.928 13.47v-87.79c0-4.14-3.356-7.496-7.496-7.496-4.141 0-7.496 3.356-7.496 7.496v100.845c-.18 5.72 6.754 9.544 11.496 6.34 31.666-19.978 61.06-26.279 87.36-18.727 14.854 4.265 24.547 12.003 28.387 15.517v19.009h-138.753c-4.134 0-7.497-3.363-7.497-7.497zm273.492-27.698c-24.011-12.917-56.107-23.27-88.928-13.47-9.653 2.883-17.452 6.96-23.326 10.797v-159.901c3.854-3.528 13.544-11.26 28.391-15.523 25.328-7.272 53.527-1.697 83.863 16.571z"/></g></g></g></svg>