<svg version="1.1" id="Layer_1" xmlns="http://www.w3.org/2000/svg" x="0" y="0" viewBox="0 0 150 150" xml:space="preserve"><style>.st0{fill:none;stroke:#151b26;stroke-width:2;stroke-linecap:round;stroke-linejoin:round;stroke-miterlimit:10}</style><path class="st0" d="M51.7 126.1H27.4c-3.7 0-6.7-3-6.7-6.7v-31h37.7v31c-.1 3.7-3 6.7-6.7 6.7zm-31-10.7h37.6"/><path class="st0" d="M58.3 97.9h4.3c2.8 0 5.2 2.3 5.2 5.2v7.2c0 2.8-2.3 5.2-5.2 5.2h-4.3M32.9 69.3c-1 .8-1.6 1.6-1.6 2.5s.6 1.7 1.6 2.5c3.3 2.5 3.3 5.3 0 7.9m11.9-6.7c1.9 2.2 1.9 4.5 0 6.7"/><path class="st0" d="M40 88.4V23.8l4.4-4.3 4.3 4.3 4.3-4.3 4.3 4.3 4.3-4.3 4.3 4.3 4.3-4.3 4.3 4.3 4.3-4.3 4.3 4.3 4.3-4.3 4.3 4.3 4.3-4.3 4.3 4.3 4.3-4.3 4.3 4.3 4.3-4.3 4.4 4.3v96.5c0 3.2 2.6 5.8 5.8 5.8 3.2 0 5.8-2.6 5.8-5.8V26h-5.8v93.1m.7 7H51"/><path class="st0" d="M51.8 36.1h53.6v14.7H51.8zm3.3 24.7h29.3m-29.3 7.5h29.3m-29.3 7.6h14.5m9 0h5.8m8.5-16.2h10.4v10.2H92.9zm0 16.2h10.4M97 43.5H60.2m19.1 59.9v12.2m8-15.7v15.7m7.9-13.1v13.1m8-20.9v20.9m3.3 0H76m-.5-16.8l13.6-10.4 4.8 5.7 12-10M25.5 94.7h9.9m5.3 0h2.4"/></svg>