<svg version="1.1" id="Layer_1" xmlns="http://www.w3.org/2000/svg" x="0" y="0" viewBox="0 0 150 150" xml:space="preserve"><style>.st0{fill:none;stroke:#151b26;stroke-width:2;stroke-linecap:round;stroke-linejoin:round;stroke-miterlimit:10}</style><path class="st0" d="M43.9 86.7v-1.8M20.5 55.3h109v74.5h-109z"/><path class="st0" d="M37.4 91.8v8.5l6.5 5 6.5-5v-8.5m-15.8-12h18.6v12H34.6zm2.8-24.5v24.5m13 0V55.3m56.2 31.4v-1.8m-6.5 6.9v8.5l6.5 5 6.5-5v-8.5"/><path class="st0" d="M97.2 79.8h18.6v12H97.2zm-31.3 1.6h18.6v8.8H65.9zm34.2-26.1v24.5m13 0V55.3M34.6 85.7H20.5m109 0h-13.6m-18.7 0H84.6m-18.7 0H53.2m76.3 37.1h-109M62.9 36v10.3c0 1.5 1 2.8 2.4 3.1 1.9.4 3.6-1.1 3.7-2.9v.1c0 1.3.8 2.5 2 2.9 2.1.7 4.1-.8 4.1-2.9v-.1c0 1.6 1.4 3 3 3 1.7 0 3-1.3 3-3v.1c0 1.3.8 2.5 2 2.9 2.1.7 4.1-.8 4.1-2.9V32.5c0-1.9-.3-3.8-.8-5.6l-1.9-6.7"/><path class="st0" d="M61.8 42.1c-2.2 0-3.9-1.8-3.9-3.9v-4c0-4.4 1.7-6.4 3.6-7.3 2.5-1.2 4.2-3.6 4.2-6.4v-.3m21.6 25.6h3.8v9.5m-32.2 0v-9.5h4m18.3-2.2v2.8m-6.1-2.8v2.8M69 43.6v2.8"/></svg>