<svg version="1.1" id="katman_1" xmlns="http://www.w3.org/2000/svg" x="0" y="0" viewBox="0 0 412 95" xml:space="preserve"><style>.st0{fill:#05a85c}</style><path class="st0" d="M125.8 79V11.4h27.1v7.2h-19.2v25h16.7v7.3h-16.7v28l-7.9.1zm64.3-10.9c0 1.5-.3 2.9-.8 4.2-.6 1.3-1.3 2.5-2.3 3.5s-2.1 1.8-3.5 2.3c-1.3.6-2.8.8-4.2.8h-9.2c-1.5 0-3-.3-4.3-.8-1.3-.6-2.5-1.3-3.5-2.3s-1.8-2.1-2.4-3.5c-.6-1.3-.8-2.8-.8-4.2V22.4c0-1.5.3-2.9.8-4.2.6-1.3 1.4-2.5 2.4-3.5s2.2-1.8 3.5-2.3c1.3-.6 2.7-.8 4.3-.8h9.2c1.5 0 2.9.3 4.2.8 1.3.6 2.5 1.3 3.5 2.3s1.8 2.1 2.3 3.5c.6 1.3.8 2.8.8 4.2v45.7zm-23.2.2c0 1 .3 1.8 1 2.4.7.7 1.5 1 2.4 1h8.6c1 0 1.8-.3 2.4-1 .7-.7 1-1.5 1-2.4V22.1c0-1-.3-1.8-1-2.4-.7-.7-1.5-1-2.4-1h-8.6c-1 0-1.8.3-2.4 1-.7.7-1 1.5-1 2.4v46.2zm47.2-8c1-4.6 2-9.3 3-13.8l3-13.8c-.8-3.6-1.5-7.1-2.3-10.6s-1.5-7-2.3-10.6h7.1c1.8 8.2 3.6 16.3 5.3 24.4 1.8 8.1 3.5 16.3 5.3 24.4 1.7-8.2 3.5-16.3 5.3-24.4s3.6-16.3 5.4-24.4h8L237.2 79h-7c-1.1-5.1-2.2-10.1-3.3-15-1.1-4.9-2.2-9.9-3.3-15-1.1 5.1-2.2 10.1-3.3 15-1.1 4.9-2.2 9.9-3.3 15h-7l-14.7-67.5h8c1.7 8.2 3.5 16.3 5.3 24.4 1.9 8.1 3.7 16.2 5.5 24.4z"/><path d="M265.6 11.4v60.5h2.3V79h-3.6c-1.8 0-3.4-.6-4.7-1.9s-1.9-2.8-1.9-4.6v-61l7.9-.1zM281 68.5c0 .8.3 1.6 1 2.3.7.7 1.5 1.1 2.4 1.1h8.8c1.5 0 2.4-.6 2.8-1.8s.5-2.4.5-3.8h7.4v2.2c-.1 1.4-.4 2.8-1 4-.6 1.3-1.4 2.4-2.3 3.3-1 1-2.1 1.7-3.4 2.2-1.3.5-2.6.8-4.1.8H284c-1.5 0-2.9-.3-4.2-.8-1.3-.6-2.5-1.3-3.4-2.3-1-1-1.8-2.1-2.3-3.4-.6-1.3-.8-2.7-.8-4.2V44.9c0-1.6.2-3.1.7-4.6s1.2-2.7 2.1-3.8c1-1.1 2.1-2 3.4-2.6 1.3-.7 2.8-1 4.6-1h9.1c1.7 0 3.2.3 4.5 1 1.3.7 2.5 1.5 3.4 2.6.9 1.1 1.6 2.3 2.1 3.8.5 1.4.7 2.9.7 4.6v16.3h-23v7.3h.1zm15.3-14.3V43.3c0-.9-.3-1.7-1-2.3-.7-.7-1.5-1-2.4-1h-8.5c-.9 0-1.7.3-2.4 1s-1 1.4-1 2.3v10.9h15.3zm37.6-10.8c0-.9-.3-1.7-1-2.4s-1.5-1-2.4-1h-7.9c-.8 0-1.5.2-1.9.5-.4.3-.8.8-1 1.3-.2.5-.3 1.1-.4 1.8-.1.7-.1 1.4-.1 2h-7.1V44c0-1.5.3-2.9.8-4.3s1.3-2.6 2.2-3.6 2.1-1.8 3.4-2.5c1.3-.6 2.8-.9 4.4-.9h7.9c1.5 0 2.9.3 4.2.8 1.3.6 2.5 1.3 3.4 2.3 1 1 1.8 2.1 2.3 3.4.6 1.3.8 2.7.8 4.2v35.3h-19.9c-1.5 0-2.9-.3-4.2-.8-1.3-.6-2.4-1.3-3.4-2.3s-1.8-2.1-2.3-3.4c-.6-1.3-.8-2.7-.8-4.2v-6.6c0-1.5.3-2.9.8-4.2.6-1.3 1.3-2.5 2.3-3.4 1-1 2.1-1.8 3.4-2.3 1.3-.6 2.7-.8 4.2-.8h12.2v-7.3h.1zm0 14.2h-12c-1.4 0-2.3.5-2.7 1.6-.4 1.1-.6 2.2-.6 3.5v5.8c0 .8.3 1.5.9 2.3.6.7 1.4 1.1 2.4 1.1h12V57.6zm29.9-24.7c1.4 0 2.7.3 3.9.8 1.2.5 2.4 1.2 3.3 2.1 1 .9 1.7 1.9 2.3 3.1.6 1.2 1 2.4 1.1 3.8.1.3.2.8.2 1.5v1.5h-7.1v-1.3c0-.7 0-1.1-.1-1.2-.1-.8-.5-1.4-1.1-1.9-.6-.5-1.3-.8-2.1-.8h-7.4v38.8h-7.7V32.9h14.7zm36.8 0c1.5 0 2.9.3 4.2.8 1.3.6 2.5 1.3 3.4 2.3 1 1 1.8 2.1 2.3 3.4.6 1.3.8 2.7.8 4.2V79h-7.7V43.3c0-1-.3-1.8-1-2.4-.7-.7-1.5-1-2.4-1h-11.9v39h-7.7v-46h20z" fill="#6d6e71"/><path class="st0" d="M82.4 47.1L76 73.2l-50.2-.1 12.8-51.9h20.9L64.7 0H23.3L0 94.4l91.3.1L103 47.2l-20.6-.1z"/><path d="M91.5 37.5H96l6.9-27.9H76.4L75.3 14l21.9.1-5.7 23.4z" fill="#49de94"/></svg>