<svg id="a7392f4d-d9c5-45f6-93eb-194822c796f3" data-name="Layer 1" xmlns="http://www.w3.org/2000/svg" width="550" height="488.5"><path d="M597.248 467.75H431.5a16.519 16.519 0 01-16.5-16.5v-86a16.519 16.519 0 0116.5-16.5h165.748a16.519 16.519 0 0116.5 16.5v86a16.519 16.519 0 01-16.5 16.5zm218.252 0H649.752a16.519 16.519 0 01-16.5-16.5v-86a16.519 16.519 0 0116.5-16.5H815.5a16.519 16.519 0 0116.5 16.5v86a16.519 16.519 0 01-16.5 16.5zm-201.752 143H415v-109.5a16.519 16.519 0 0116.5-16.5h165.748a16.519 16.519 0 0116.5 16.5zm218.252 0H633.252v-109.5a16.519 16.519 0 0116.5-16.5H815.5a16.519 16.519 0 0116.5 16.5zm-16.5-279H649.752a16.519 16.519 0 01-16.5-16.5v-93a16.519 16.519 0 0116.5-16.5H815.5a16.519 16.519 0 0116.5 16.5v93a16.519 16.519 0 01-16.5 16.5zm-218.252 0H431.5a16.519 16.519 0 01-16.5-16.5v-93a16.519 16.519 0 0116.5-16.5h165.748a16.519 16.519 0 0116.5 16.5v93a16.519 16.519 0 01-16.5 16.5z" transform="translate(-325 -205.75)" fill="#f2f2f2"/><path d="M826.5 615.75h-402a9.5 9.5 0 010-19h402a9.5 9.5 0 010 19z" transform="translate(-325 -205.75)" fill="#ccc"/><path d="M608 605.75H444v-38a82 82 0 01164 0zm196 0H640v-38a82 82 0 01164 0z" transform="translate(-325 -205.75)" fill="#ccc"/><path transform="rotate(-180 558.5 548.375)" fill="#ccc" d="M714.5 609.25h13v84h-13z"/><path d="M677.5 692.793c0 1.405 19.7.544 44 .544s44 .86 44-.544-19.7-12.543-44-12.543-44 11.139-44 12.543z" transform="translate(-325 -205.75)" fill="#ccc"/><path transform="rotate(-180 362.5 548.375)" fill="#ccc" d="M518.5 609.25h13v84h-13z"/><path d="M481.5 692.793c0 1.405 19.7.544 44 .544s44 .86 44-.544-19.7-12.543-44-12.543-44 11.139-44 12.543z" transform="translate(-325 -205.75)" fill="#ccc"/><path fill="#a0616a" d="M258.428 476.049h12.26l5.832-47.288h-18.094l.002 47.288z"/><path d="M580.801 678.296h38.53v14.886h-23.643a14.887 14.887 0 01-14.887-14.886z" transform="rotate(179.997 437.569 582.86)" fill="#2f2e41"/><path fill="#a0616a" d="M277.566 469.207l11.697-3.671-8.592-46.865-17.264 5.417 14.159 45.119z"/><path d="M600.355 666.291h38.53v14.887h-23.643a14.887 14.887 0 01-14.887-14.887z" transform="rotate(162.577 472.883 545.96)" fill="#2f2e41"/><path d="M594.364 653.192l-22.427-58.871c-5.032 1.181-47.227 10.518-61.36-4.529-4.843-5.157-5.787-12.629-2.807-22.208l8.248-10.364.256.014c3.118.164 76.435 4.273 81.461 26.388 4.238 18.645 11.977 53.406 14.248 63.616a4.516 4.516 0 01-2.814 5.183l-9.02 3.382a4.462 4.462 0 01-1.572.286 4.513 4.513 0 01-4.213-2.897z" transform="translate(-325 -205.75)" fill="#2f2e41"/><path d="M581.364 660.192l-22.427-58.871c-5.032 1.181-47.227 10.517-61.36-4.529-4.843-5.157-5.787-12.629-2.807-22.208l8.248-10.364.256.014c3.118.164 76.435 4.273 81.461 26.388 4.238 18.645 11.977 53.406 14.248 63.616a4.516 4.516 0 01-2.814 5.183l-9.02 3.382a4.462 4.462 0 01-1.572.286 4.513 4.513 0 01-4.213-2.897z" transform="translate(-325 -205.75)" fill="#2f2e41"/><path d="M561.19 545.974a19.196 19.196 0 01-16.484-9.372l-7.123-12.066 16.93-9.253 7.188 9.856 48.774-5.138a10.56 10.56 0 01.799-1.234 11.016 11.016 0 017.873-4.314 10.893 10.893 0 018.493 3.012 11.023 11.023 0 011.86 13.564 11.004 11.004 0 01-16.114 3.15 10.4 10.4 0 01-.823-.7l-46.714 11.91a18.837 18.837 0 01-4.659.585z" transform="translate(-325 -205.75)" fill="#a0616a"/><path d="M494.453 577.693a4.507 4.507 0 01-1.819-4.349c2.783-18.343-.419-44.62-3.594-63.433a24.795 24.795 0 0127.559-28.761 79.864 79.864 0 019.913 1.954 24.596 24.596 0 0118.582 24.468c-.475 18.154 3.211 40.805 4.818 49.7a4.519 4.519 0 01-.834 3.512 4.392 4.392 0 01-3.095 1.75c-17.808 1.817-37.012 10.501-46.875 15.516a4.5 4.5 0 01-2.05.501 4.429 4.429 0 01-2.605-.858z" transform="translate(-325 -205.75)" fill="#cdb950"/><path d="M542.524 530.381a4.47 4.47 0 01-2.474-2.397l-9.931-22.943a11.5 11.5 0 1121.107-9.135l9.932 22.942a4.506 4.506 0 01-2.342 5.917l-12.848 5.561a4.469 4.469 0 01-3.444.055z" transform="translate(-325 -205.75)" fill="#cdb950"/><circle cx="189.771" cy="243.034" r="24.561" fill="#a0616a"/><path d="M499.929 470.605a3.974 3.974 0 01-5.69.326 44.426 44.426 0 01-12.673-16.548c-3.193-7.611-3.66-16.9-.027-24.033 3.072-6.031 8.587-9.87 14.092-13.008a22.993 22.993 0 016.848-2.894 8.994 8.994 0 017.154 1.407 7.544 7.544 0 012.878 7.227 22.354 22.354 0 019.802-7.356 11.365 11.365 0 017.554-.506c3.535 1.18 6.152 4.75 7.608 8.586a19.14 19.14 0 011.256 9.263 11.129 11.129 0 01-4.27 7.672c-2.883 1.99-6.598 1.788-9.952.907s-6.61-2.374-10.022-2.79-7.194.486-9.227 3.53c-1.432 2.143-1.77 4.967-2.061 7.658l-1.52 13.999a18.548 18.548 0 01-1.277 5.84 3.25 3.25 0 01-.473.72z" transform="translate(-325 -205.75)" fill="#2f2e41"/><path d="M552.431 571.62a11.019 11.019 0 01-6.534-6.158 10.258 10.258 0 01-.36-1.019l-52.321-14.893a10.88 10.88 0 01-7.861-10.343l-.128-20.201 19.286.516 1.257 12.134 44.74 20.087a10.569 10.569 0 011.312-.665 11.01 11.01 0 11.609 20.542z" transform="translate(-325 -205.75)" fill="#a0616a"/><path d="M485.527 527.874a4.47 4.47 0 01-1.12-3.257l1.534-24.953a11.5 11.5 0 1122.956 1.412l-1.533 24.953a4.506 4.506 0 01-4.768 4.215l-13.974-.859a4.469 4.469 0 01-3.095-1.51zm136.541 12.376h-14.136a1.818 1.818 0 01-1.816-1.647l-2.83-29.002h23.427l-2.83 29.002a1.818 1.818 0 01-1.815 1.647z" transform="translate(-325 -205.75)" fill="#cdb950"/><path d="M626.676 513.25h-23.352a1.826 1.826 0 01-1.824-1.824v-4.379a1.826 1.826 0 011.824-1.824h23.352a1.826 1.826 0 011.824 1.824v4.379a1.826 1.826 0 01-1.824 1.824zm-217.149 1h-28.514a3.168 3.168 0 00-3.168 3.168v60.195h4.752V522.17a3.168 3.168 0 013.168-3.168h20.593a3.168 3.168 0 013.169 3.168v55.443h4.752v-60.195a3.168 3.168 0 00-3.168-3.168z" transform="translate(-325 -205.75)" fill="#3f3d56"/><path d="M428.535 693.25H360.42a13.48 13.48 0 01-13.464-13.465V579.99a13.48 13.48 0 0113.464-13.465h68.115A13.48 13.48 0 01442 579.99v99.796a13.48 13.48 0 01-13.465 13.465z" transform="translate(-325 -205.75)" fill="#3f3d56"/><path d="M348.197 649.573c-4.63 0-7.129-9.59-7.129-18.613s2.499-18.613 7.129-18.613 7.128 9.59 7.128 18.613-2.498 18.613-7.128 18.613zm0-35.642c-2.623 0-5.544 6.994-5.544 17.029s2.921 17.029 5.544 17.029 5.544-6.994 5.544-17.029-2.922-17.029-5.544-17.029z" transform="translate(-325 -205.75)" fill="#3f3d56"/><path d="M423.783 633.847h-12.672a3.965 3.965 0 01-3.96-3.96v-9.504a3.965 3.965 0 013.96-3.96h12.672a3.965 3.965 0 013.96 3.96v9.504a3.965 3.965 0 01-3.96 3.96z" transform="translate(-325 -205.75)" fill="#fff"/><path d="M427.743 686.54h-72.418a1.584 1.584 0 01-1.584-1.585v-110.51a1.584 1.584 0 011.584-1.584h72.418a1.584 1.584 0 110 3.168H356.91V683.37h70.834a1.584 1.584 0 010 3.168z" transform="translate(-325 -205.75)" fill="#fff"/><path d="M809.73 390.206a9.43 9.43 0 00-3.178-1.807 21.3 21.3 0 00-8.074-.878 36.51 36.51 0 00-5.935.827l-91.166 25.792q-2.583.725-5.078 1.69c-5.877-2.3-22.491-8.952-24.312-11.34l-7.146 2.09 11.913 17.782a1.633 1.633 0 00.123 3.04c13.734 4.716 34.476-1.545 34.476-1.545l79.659-22.76s24.043-8.132 18.718-12.891z" transform="translate(-325 -205.75)" fill="#fff" style="isolation:isolate"/><path fill="#f2f2f2" d="M439.558 198.716l-51.774 13.98-3.059 6.118 54.833-20.098z"/><path d="M874 694.25H326a1 1 0 010-2h548a1 1 0 010 2z" transform="translate(-325 -205.75)" fill="#ccc"/><path d="M763.5 293.25a14.941 14.941 0 00-10.956 4.778A10.985 10.985 0 00737.5 308.25h41a15 15 0 00-15-15zm-220-49a14.941 14.941 0 00-10.956 4.778A10.985 10.985 0 00517.5 259.25h41a15 15 0 00-15-15zm-68 131a14.941 14.941 0 00-10.956 4.778A10.985 10.985 0 00449.5 390.25h41a15 15 0 00-15-15z" transform="translate(-325 -205.75)" fill="#fff"/></svg>