<svg id="b4c217a0-9b86-49d5-974d-fd03b0c4b3dd" data-name="Layer 1" xmlns="http://www.w3.org/2000/svg" width="1006.812" height="762"><path fill="#cdb950" d="M627.406 295h86v55h-86zm-134 86h86v55h-86z"/><path d="M1061.406 382V265h-65v-76h-44v76h-65v117h-36V119h-73V94h-97V69h-96v25h-91v25h-79v262h-42V264h-65v-76h-44v76h-65v117h-42v415h96V649h66v147h258V625h112v171h156v1h96V650h66v147h96V382zm-869.5 50h38v30h-38zm.5 84h38v30h-38zm38.5 114h-38v-30h38zm99.5-271h-88v-18h88zm0-26h-88v-18h88zm0-26h-88v-18h88zm12.5 125h38v30h-38zm.5 84h38v30h-38zm38.5 114h-38v-30h38zm155.5-50h-70v-31h70zm0-89h-70v-31h70zm0-89h-70v-31h70zm0-89h-70v-31h70zm0-89h-70v-31h70zm131 356h-70v-31h70zm0-89h-70v-31h70zm0-89h-70v-31h70zm0-89h-70v-31h70zm0-89h-70v-31h70zm131 356h-70v-31h70zm0-89h-70v-31h70zm0-89h-70v-31h70zm0-89h-70v-31h70zm0-89h-70v-31h70zm80.5 209h38v30h-38zm.5 84h38v30h-38zm38.5 114h-38v-30h38zm99.5-271h-88v-18h88zm0-26h-88v-18h88zm0-26h-88v-18h88zm12.5 125h38v30h-38zm.5 84h38v30h-38zm38.5 114h-38v-30h38z" transform="translate(-96.594 -69)" fill="#f2f2f2"/><path d="M216.594 694.71a178.17 178.17 0 01-1.394 13.03l12.226-13.56.067.228a35.626 35.626 0 00-3.576-9.332l.078.215zm.048-.695l7.17-9.123a18.767 18.767 0 00-6.413-6.833 14.008 14.008 0 00-.396-.225c.04 1.078.227 7.403-.36 16.182zm-6.468 35.768q-.472 1.439-.976 2.826l18.005-10.557.025.265q.565-2.463.94-4.925l-17.977 12.511zm2.504-8.861l16.216-13.373.046.25a56.007 56.007 0 00-1.39-13.147l-12.46 13.817q-.98 6.532-2.412 12.453zm2.135-12.716l-19.403-21.65.104-.244a46.761 46.761 0 00-4.656 8.196L213 718.082c.759-3.44 1.35-6.772 1.813-9.876zm-24.164-13.211c.035-.08.066-.167.101-.247zm-1.08 2.655l-.1.248c.032-.085.069-.162.1-.247z" transform="translate(-96.594 -69)" fill="#cdb950"/><path d="M212.872 718.656l-22.223-23.66q-.563 1.29-1.08 2.655l22.714 23.508q.31-1.259.59-2.503zm15.344-1.58a66.882 66.882 0 00.722-8.986l-16.435 13.554q-.977 3.942-2.15 7.58l17.828-12.406zm-41.594 1.687l17.989 23.469a80.445 80.445 0 003.909-8.812l-21.95-23.055a64.694 64.694 0 00-.072 8.661zm30.053-40.949l.161-.072c-3.94-2.104-8.204-1.878-12.292.255L216.325 694c.634-9.498.354-16.091.35-16.186zm-8.06 56.365a79.894 79.894 0 01-3.533 7.946l18.094-9.362.018.26a31.688 31.688 0 003.173-7.34q.431-1.517.787-3.043l-18.22 10.683c-.106.286-.211.573-.32.856zm7.662-39.472l-12.052-16.37.113-.232a26.97 26.97 0 00-8.68 8.009l19.246 21.473c.666-4.597 1.097-8.97 1.373-12.88zm-7.56 38.183a108.559 108.559 0 003.426-11.171l-22.77-23.566q-.813 2.208-1.493 4.593a38.897 38.897 0 00-1.255 6.97L208.7 732.9zm23.387 25.425a177.94 177.94 0 01-9.384 9.147l18.064-2.645-.093.217a35.625 35.625 0 003.197-9.467l-.076.215zm11.24-12.31a14.101 14.101 0 00-.161-.426c-.657.855-4.547 5.847-10.599 12.232l11.34-2.454a18.768 18.768 0 00-.58-9.352zm-38.554 35.229q-1.282.807-2.554 1.554l20.6 3.353-.15.22q2.005-1.537 3.865-3.193l-21.826-1.83zm7.58-5.227l21.018.042-.124.222a56.01 56.01 0 007.315-11.012l-18.409 2.695q-4.922 4.405-9.8 8.053zm-7.087 4.911l21.644 1.815-.138.222a66.887 66.887 0 006.288-6.462l-21.303-.043q-3.267 2.414-6.49 4.468z" transform="translate(-96.594 -69)" fill="#cdb950"/><path d="M178.773 791.629c.154-.155.316-.324.476-.488a55.639 55.639 0 0012.845-3.67l.588-15.599q.262-.595.509-1.2l-.626 16.602a80.426 80.426 0 008.63-4.294l-2.01-28.999c.156-.08.312-.162.473-.247l2.007 28.96.02.004a108.564 108.564 0 009.764-6.42l-2.189-28.536c.155-.113.31-.224.465-.34l2.189 28.534q1.041-.771 2.05-1.551l-1.805-28.887c.154-.127.309-.254.463-.383l1.807 28.909a145.443 145.443 0 007.695-6.45l-1.136-29.05.236-.122c-.806.21-1.626.46-2.453.732a40.989 40.989 0 004.18-5.698l-18.268 9.451a61.459 61.459 0 01-4.257 6.933c-.326.308-.653.616-.975.938l.024.346c-.149.197-.297.395-.448.587l-.032-.467c-.23.236-.456.487-.684.73a57.727 57.727 0 006.063-9.27l-17.857-23.297c.122 2.083.325 4.179.587 6.258a35.237 35.237 0 00-5.986-7.314l.141.18-4.127 11.245a177.994 177.994 0 012.701 12.823l7.334-16.445c.034.257.07.512.105.768l-7.317 16.405q1.086 6.515 1.555 12.589l8.781-13.793.15.592-8.875 13.941q.29 4.052.299 7.874l10.734-14.162.169.546-10.848 14.312-.053-.11q-.004 1.515-.054 2.99l12.107-13.633.18.525-12.318 13.868c-.012.305-.024.61-.04.913a79.923 79.923 0 01-.903 8.65l1.169-1.184q-.332.689-.647 1.358l-.665.673c-.076.438-.163.866-.247 1.296q-.368.808-.71 1.577c.22-.983.425-1.972.6-2.97l-24.183-16.637c6.309 16.142 18.19 31.496 18.95 32.47a43.971 43.971 0 001.694-3.55c.15-.015.3-.029.449-.045-.062.15-.126.296-.19.443-.074.008-.15.02-.226.028l.193.053a45.62 45.62 0 01-1.143 2.482 67.99 67.99 0 002.293-2.177c5.687 1.452 21.007 4.556 34.124-.03l-20.098-4.372a56.202 56.202 0 01-13.429 3.805zm14.123-25.43l.482-.489-.028.731-.482.488zm50.046-20.845l.17.048c-1.691-4.134-5.12-6.68-9.63-7.644l-1.132 19.84c6.546-6.911 10.535-12.168 10.592-12.244z" transform="translate(-96.594 -69)" fill="#cdb950"/><path d="M200.785 783.625a79.92 79.92 0 01-7.79 3.866l19.908 4.33-.152.213a31.683 31.683 0 007.125-3.63q1.3-.894 2.547-1.842l-20.846-3.393c-.264.153-.529.307-.792.456zm21.804-16.47a177.23 177.23 0 009.272-9.044l1.159-20.294.236-.108a26.971 26.971 0 00-11.793.633zm-41.629-48.966a18.768 18.768 0 00-8.21-4.517 12.112 12.112 0 00-.445-.091c.37 1.012 2.504 6.97 4.658 15.5zm-1.35 24.954l-25.145-14.592.023-.265a46.76 46.76 0 00-1.895 9.233l28.345 15.576a145.446 145.446 0 00-1.329-9.952zm-27.065-5.096c.01-.086.011-.179.02-.266zm-.206 2.859l-.018.267c.003-.09.014-.176.019-.266zm28.655 12.774l-28.448-15.632q-.137 1.402-.206 2.859l28.867 15.336q-.095-1.293-.213-2.563zm.424 15.386l-28-15.14a64.712 64.712 0 002.608 8.259l.037-.29 24.361 16.76a80.445 80.445 0 00.994-9.589zm-9.432-55.403l.131-.118c-4.397-.784-8.383.75-11.611 4.042l16.15 11.577c-2.332-9.228-4.636-15.412-4.67-15.5zm4.843 16.189l-16.521-11.843.035-.256a26.97 26.97 0 00-5.779 10.3l24.94 14.472a177.033 177.033 0 00-2.675-12.673zm4.613 38.651a108.556 108.556 0 00-.195-11.684l-28.939-15.374q-.09 2.35 0 4.83a38.903 38.903 0 00.96 7.016l28.16 15.227zm891.152-76.793a178.17 178.17 0 01-1.394 13.03l12.226-13.56.067.228a35.628 35.628 0 00-3.576-9.332l.078.215zm.048-.695l7.17-9.123a18.766 18.766 0 00-6.413-6.833 13.994 13.994 0 00-.396-.225c.04 1.078.227 7.403-.36 16.182zm-6.468 35.768q-.472 1.439-.976 2.826l18.005-10.557.025.265q.565-2.463.94-4.925l-17.977 12.511zm2.504-8.861l16.216-13.373.046.25a56.01 56.01 0 00-1.39-13.147l-12.46 13.817q-.98 6.532-2.412 12.453zm2.135-12.716l-19.403-21.65.104-.244a46.761 46.761 0 00-4.656 8.196L1069 715.082c.759-3.44 1.35-6.772 1.813-9.876zm-24.164-13.211c.035-.08.066-.167.101-.247zm22.223 23.661l-22.223-23.66q-.563 1.29-1.08 2.655l22.714 23.508q.31-1.259.59-2.503zm-23.303-21.006l-.1.248c.032-.085.069-.162.1-.247zm38.647 19.426a66.862 66.862 0 00.721-8.986l-16.434 13.554q-.977 3.942-2.15 7.58l17.828-12.406zm-41.594 1.687l17.989 23.469a80.445 80.445 0 003.909-8.812l-21.95-23.055a64.694 64.694 0 00-.072 8.661zm30.053-40.949l.16-.072c-3.939-2.104-8.203-1.878-12.291.255L1072.325 691c.634-9.498.354-16.091.35-16.186zm-8.06 56.365a79.894 79.894 0 01-3.533 7.946l18.094-9.362.018.26a31.69 31.69 0 003.173-7.34q.431-1.517.787-3.043l-18.22 10.683c-.106.286-.211.573-.32.856zm7.662-39.472l-12.052-16.37.113-.232a26.97 26.97 0 00-8.68 8.009l19.246 21.473c.666-4.597 1.097-8.97 1.373-12.88zm-7.56 38.183a108.559 108.559 0 003.426-11.171l-22.77-23.566q-.813 2.208-1.493 4.593a38.897 38.897 0 00-1.255 6.97L1064.7 729.9zm23.387 25.425a177.985 177.985 0 01-9.384 9.147l18.064-2.645-.093.217a35.625 35.625 0 003.197-9.467l-.076.215zm11.24-12.31a14.101 14.101 0 00-.161-.426c-.657.855-4.547 5.847-10.599 12.232l11.34-2.454a18.768 18.768 0 00-.58-9.352zm-38.554 35.229q-1.282.807-2.554 1.554l20.6 3.353-.15.22q2.006-1.537 3.865-3.193l-21.826-1.83zm7.58-5.227l21.018.042-.124.222a56.01 56.01 0 007.315-11.012l-18.409 2.695q-4.922 4.405-9.8 8.053zm-7.087 4.911l21.644 1.815-.138.222a66.895 66.895 0 006.288-6.462l-21.303-.043q-3.267 2.414-6.49 4.468z" transform="translate(-96.594 -69)" fill="#cdb950"/><path d="M1034.773 788.629c.154-.155.316-.324.476-.488a55.639 55.639 0 0012.845-3.67l.588-15.599q.262-.595.509-1.2l-.626 16.602a80.426 80.426 0 008.63-4.294l-2.01-28.999c.156-.08.312-.162.473-.247l2.007 28.96.02.004a108.564 108.564 0 009.764-6.42l-2.189-28.536c.155-.113.31-.224.465-.34l2.189 28.534q1.041-.771 2.05-1.551l-1.805-28.887c.154-.127.309-.254.463-.383l1.807 28.909a145.393 145.393 0 007.695-6.45l-1.136-29.05.236-.122c-.806.21-1.626.46-2.453.732a40.989 40.989 0 004.18-5.698l-18.268 9.451a61.459 61.459 0 01-4.257 6.933c-.326.308-.653.616-.975.938l.024.346c-.149.197-.297.395-.448.587l-.032-.467c-.23.236-.456.487-.684.73a57.727 57.727 0 006.063-9.27l-17.857-23.297c.122 2.083.325 4.179.587 6.258a35.237 35.237 0 00-5.986-7.314l.141.18-4.127 11.245a177.994 177.994 0 012.701 12.823l7.334-16.445c.034.257.07.512.105.768l-7.317 16.405q1.086 6.515 1.555 12.589l8.781-13.793.15.592-8.875 13.941q.29 4.052.299 7.874l10.734-14.162.169.546-10.848 14.312-.053-.11q-.004 1.515-.054 2.99l12.108-13.633q.096.285.179.525l-12.318 13.868c-.012.305-.023.61-.039.913a79.923 79.923 0 01-.904 8.65l1.169-1.184q-.332.689-.647 1.358l-.665.673c-.076.438-.163.866-.247 1.296q-.368.808-.71 1.577c.22-.983.425-1.972.6-2.97l-24.183-16.637c6.309 16.142 18.19 31.496 18.95 32.47a43.971 43.971 0 001.694-3.55c.15-.015.3-.029.449-.045-.062.15-.126.296-.189.443-.075.008-.152.02-.227.028l.193.053a45.62 45.62 0 01-1.143 2.482 67.99 67.99 0 002.293-2.177c5.687 1.452 21.007 4.556 34.124-.03l-20.097-4.371a56.202 56.202 0 01-13.43 3.804zm14.123-25.43l.482-.489-.028.731-.482.488zm50.046-20.845l.17.048c-1.691-4.134-5.12-6.68-9.63-7.644l-1.132 19.84c6.546-6.911 10.535-12.168 10.592-12.244z" transform="translate(-96.594 -69)" fill="#cdb950"/><path d="M1056.785 780.625a79.92 79.92 0 01-7.79 3.866l19.908 4.33-.152.213a31.684 31.684 0 007.125-3.63q1.3-.894 2.547-1.842l-20.846-3.393c-.264.153-.529.307-.792.456zm21.805-16.47a177.177 177.177 0 009.271-9.044l1.159-20.294.236-.108a26.97 26.97 0 00-11.793.633zm-41.63-48.966a18.768 18.768 0 00-8.21-4.517 12.112 12.112 0 00-.445-.091c.37 1.012 2.504 6.97 4.658 15.5zm-1.35 24.954l-25.145-14.592.023-.265a46.76 46.76 0 00-1.895 9.233l28.345 15.576a145.446 145.446 0 00-1.329-9.952zm-27.271-2.237l-.018.267c.003-.09.014-.176.019-.266zm.206-2.859c.01-.086.011-.179.02-.266z" transform="translate(-96.594 -69)" fill="#cdb950"/><path d="M1036.994 750.68l-28.448-15.632q-.137 1.402-.206 2.859l28.867 15.336q-.095-1.293-.213-2.563zm.424 15.386l-28-15.14a64.712 64.712 0 002.608 8.259l.037-.29 24.361 16.76a80.445 80.445 0 00.994-9.589zm-9.432-55.403l.131-.118c-4.397-.784-8.383.75-11.611 4.042l16.15 11.577c-2.332-9.228-4.636-15.412-4.67-15.5zm4.843 16.189l-16.521-11.843.035-.256a26.97 26.97 0 00-5.779 10.3l24.94 14.472a177.174 177.174 0 00-2.675-12.673zm4.613 38.651a108.556 108.556 0 00-.195-11.684l-28.939-15.374q-.09 2.35 0 4.83a38.903 38.903 0 00.96 7.016l28.16 15.227z" transform="translate(-96.594 -69)" fill="#cdb950"/><path d="M60.812 727h946v13.535A21.465 21.465 0 01985.346 762H82.277a21.465 21.465 0 01-21.465-21.465V727z" fill="#2f2e41"/><path fill="#3f3d56" d="M60.812 716h946v19h-946z"/><path d="M890.549 134.974l10.865 6.89-6.597-11.994a10.743 10.743 0 016.57-2.345q.088 0 .175.002a12.591 12.591 0 002.254-.167l3.682 2.335-1.578-2.87a13.105 13.105 0 006.441-4.888l6.59 4.179-4.163-7.57c3.854-4.626 9.049-7.463 14.765-7.463 6.853 0 12.958 4.076 16.899 10.426a12.632 12.632 0 0011.17 6.023q.183-.007.368-.007c7.566 0 13.699 8.578 13.699 19.16s-6.133 19.159-13.699 19.159a10.28 10.28 0 01-4.771-1.195 19.768 19.768 0 00-16.58-.324 17.284 17.284 0 01-14.097.033 19.782 19.782 0 00-16.434.317 10.271 10.271 0 01-4.72 1.169c-7.566 0-13.7-8.578-13.7-19.16a24.328 24.328 0 012.86-11.71zm-552.758 56.27l6.911 4.383-4.196-7.63a6.834 6.834 0 014.18-1.492l.11.001a8.009 8.009 0 001.435-.106l2.342 1.486-1.004-1.826a8.336 8.336 0 004.097-3.11l4.192 2.659-2.648-4.815a12.268 12.268 0 019.392-4.747c4.36 0 8.243 2.592 10.75 6.632a8.035 8.035 0 007.105 3.83q.117-.004.235-.004c4.812 0 8.714 5.457 8.714 12.188s-3.902 12.188-8.714 12.188a6.54 6.54 0 01-3.036-.76 12.575 12.575 0 00-10.547-.206 10.995 10.995 0 01-8.967.02 12.584 12.584 0 00-10.453.203 6.534 6.534 0 01-3.004.743c-4.812 0-8.714-5.457-8.714-12.188a15.476 15.476 0 011.82-7.45zm-186 23.494l6.911 4.383-4.196-7.63a6.834 6.834 0 014.18-1.491l.11.001a8.009 8.009 0 001.435-.106l2.342 1.485-1.004-1.825a8.336 8.336 0 004.097-3.11l4.192 2.658-2.648-4.815a12.268 12.268 0 019.392-4.747c4.36 0 8.243 2.593 10.75 6.632a8.035 8.035 0 007.105 3.831q.117-.004.235-.004c4.812 0 8.714 5.457 8.714 12.188s-3.902 12.187-8.714 12.187a6.54 6.54 0 01-3.036-.76 12.575 12.575 0 00-10.547-.206 10.995 10.995 0 01-8.967.021 12.584 12.584 0 00-10.453.202 6.534 6.534 0 01-3.004.743c-4.812 0-8.714-5.456-8.714-12.187a15.476 15.476 0 011.82-7.45z" transform="translate(-96.594 -69)" fill="#f2f2f2"/><path d="M401.314 665.864l-1.207 1.207s.403 13.278.805 16.095 2.012 7.645.805 11.266-1.61 6.438-1.207 6.84-.403 2.012-.403 2.012l3.22-2.012 5.23-12.07-2.414-12.877z" transform="translate(-96.594 -69)" fill="#cdb950"/><path d="M401.314 665.864l-1.207 1.207s.403 13.278.805 16.095 2.012 7.645.805 11.266-1.61 6.438-1.207 6.84-.403 2.012-.403 2.012l3.22-2.012 5.23-12.07-2.414-12.877z" transform="translate(-96.594 -69)" opacity=".1"/><path d="M422.64 791.001s0-4.426-.805-5.23-2.012-3.622-3.621-3.622-7.243 1.61-7.243 2.012a7.348 7.348 0 01-.805 3.621c-.804 1.207-5.23 6.036-.804 6.84a11.242 11.242 0 008.45-2.012c.402-.402 2.011-.804 2.414-.402s2.414-1.207 2.414-1.207zm11.266-7.243l2.415 4.426s.804 4.024 2.011 4.427h1.207s1.208 4.426 4.024 4.023 6.036-2.012 6.036-2.816 0-3.22-1.207-4.024a57.34 57.34 0 01-4.829-4.426l-2.012-2.012z" transform="translate(-96.594 -69)" fill="#cdb950"/><path d="M403.026 636.367a5.43 5.43 0 00-2.906 4.064c-.224 2.873 2.616 5.58 1.702 8.312-.519 1.552-2.134 2.557-2.6 4.125a5.675 5.675 0 00.522 3.682 28.104 28.104 0 002.311 4.467c1.696 2.663 3.904 5.19 4.357 8.315a3.548 3.548 0 01-.785 3.128 7.506 7.506 0 012.745-1.306 34.937 34.937 0 0011.267-6.275 7.037 7.037 0 002.605-3.463c.614-2.472-1.262-4.945-1.082-7.486.115-1.626 1.053-3.06 1.584-4.601a11.886 11.886 0 00-1.026-9.263 11.05 11.05 0 00-6.578-5.72 13.051 13.051 0 00-6.646.191 24.427 24.427 0 00-5.47 1.83z" transform="translate(-96.594 -69)" fill="#2f2e41"/><path d="M405.291 658.68a10.438 10.438 0 019.1-5.49c6.438 0 5.231-.403 5.231-.403l-2.012 8.047-4.023 4.024z" transform="translate(-96.594 -69)" fill="#cdb950"/><path d="M406.947 650.171s3.622 6.036 1.208 8.45-1.208 4.829-.805 5.231 11.669 1.207 11.669 1.207l.402-5.633 1.207-4.829s-6.438-1.207-5.633-4.023-8.048-.403-8.048-.403z" transform="translate(-96.594 -69)" fill="#fbbebe"/><path d="M406.947 650.171s3.622 6.036 1.208 8.45-1.208 4.829-.805 5.231 11.669 1.207 11.669 1.207l.402-5.633 1.207-4.829s-6.438-1.207-5.633-4.023-8.048-.403-8.048-.403z" transform="translate(-96.594 -69)" opacity=".1"/><path d="M435.113 707.308a27.742 27.742 0 01-1.61 4.024c-.401.402-1.609-2.817-1.609-2.817l1.208-2.816z" transform="translate(-96.594 -69)" fill="#fbbebe"/><path fill="#fbbebe" d="M333.892 620l1.609 9.255h-24.142l1.207-9.255h21.326z"/><circle cx="314.779" cy="576.745" r="7.645" fill="#fbbebe"/><path d="M412.983 661.438s-4.426.402-4.426-.403-.402-3.219-1.207-2.816-6.036.804-5.633 2.012 1.207 3.62.402 3.62a2.619 2.619 0 00-2.012 3.22c.403 2.012 4.829 14.083 4.829 14.083s.402 4.024 1.61 5.23a3.611 3.611 0 010 4.427c-.806.805 2.01 1.61 3.218 3.219s10.462.402 10.864 0 10.06-.403 10.864-1.207-.402-3.22-.402-3.22-.403-3.62 0-4.828-1.61-20.923-2.817-22.13 3.621-4.829 3.621-4.829-.804-3.219-6.035-3.62c0 0-1.61-2.415-3.22-2.415s-5.103 1.872-5.103 1.872-.932 5.37-2.139 5.773a6.634 6.634 0 00-2.414 2.012z" transform="translate(-96.594 -69)" fill="#cdb950"/><path d="M429.078 656.61l2.816 1.206s8.048 24.947 7.243 29.776-2.816 21.325-4.024 21.325-3.62-2.414-3.62-2.414v-4.023c0-.805-1.208-3.22-.403-3.22s2.012-.804 1.207-1.609-1.61-2.012-.805-3.219 1.207-1.61.805-2.817-1.207-2.414-.403-3.219-2.011-4.828-2.011-4.828l-4.426-17.704.804-7.243z" transform="translate(-96.594 -69)" fill="#cdb950"/><path d="M430.687 694.834s-15.29-1.207-17.302-1.207-6.525-1.894-6.525-1.894-11.581 11.551-7.558 30.463 4.829 42.249 7.243 49.089a127.382 127.382 0 014.024 14.888s4.024-7.243 11.669.804c0 0 .804-6.035-.403-8.45s-2.816-15.29-2.816-15.29-2.817-20.52-2.817-22.935-1.61-22.935-1.207-23.337 2.414 15.692 2.816 18.509 1.61 24.544 2.817 26.959 6.84 21.728 10.06 22.935 14.082-.403 13.68-1.207-3.22-5.231-4.024-6.438l-3.219-4.829-7.645-26.154 3.622-31.787s2.011-20.52-2.415-20.119zM416.03 644.74h-9.803a1.746 1.746 0 01-1.725-1.475l-.975-6.17h15.29l-1.367 6.492a1.451 1.451 0 01-1.42 1.152z" transform="translate(-96.594 -69)" fill="#2f2e41"/><path d="M824.715 573.834h15.469v22.098a15.469 15.469 0 01-15.469-15.468v-6.63z" fill="#2f2e41"/><path fill="#a0616a" d="M815.692 703.292l-1.105 5.525h7.734l.368-5.525h-6.997z"/><path d="M912.286 776.712s-1.473-1.105-2.21-.368-3.315 15.1-3.683 15.469-11.417 5.892-8.84 6.26 12.523.737 13.996 0 5.525-7.734 5.525-7.734v6.261h.736s.737-6.629 2.579-8.47-1.474-8.103-1.474-8.103.737-4.052.369-4.052-6.998.737-6.998.737z" transform="translate(-96.594 -69)" fill="#cdb950"/><path fill="#a0616a" d="M838.526 699.425l-1.105 5.525h7.735l.368-5.525h-6.998z"/><path d="M926.281 732.516s3.683 11.049 4.42 12.154 3.315 21.73 3.315 21.73-2.578 4.051.736 4.42 1.842-.737 4.052 0a4.16 4.16 0 003.683-.369s1.105-2.21.368-2.946.737-19.889.737-19.889l-2.21-6.63-1.842-20.992s2.21-5.525 1.105-6.998-4.788 1.105-4.788 1.105z" transform="translate(-96.594 -69)" fill="#2f2e41"/><path d="M921.493 703.788s-1.105 11.786-1.841 12.523-8.84 21.361-8.84 21.361-2.21 2.578-1.473 12.154 2.579 19.152 2.579 19.152-1.474 5.524 1.104 5.524 3.683-1.473 4.788-.368 1.842 0 2.21-.737 1.842-3.314 1.842-4.05 1.473-19.52 1.473-19.52 12.154-26.887 13.259-28.36 7.366-9.576 6.998-15.1z" transform="translate(-96.594 -69)" fill="#2f2e41"/><circle cx="834.107" cy="577.333" r="7.734" fill="#a0616a"/><path d="M929.228 652.963s2.946 6.629 3.314 8.47 7.366-3.682 7.366-3.682-3.683-6.262-2.578-9.208z" transform="translate(-96.594 -69)" fill="#a0616a"/><path d="M941.013 656.646s-5.524-4.052-9.575 4.42-5.157 8.102-5.157 8.102-4.788 1.473-3.314 11.786-4.788 23.94-2.21 24.676 26.518 4.788 26.518 1.841-2.21-14.364-.369-21.361-2.578-31.306-5.893-29.464z" transform="translate(-96.594 -69)" fill="#3f3d56"/><path d="M935.489 658.487s-4.42 6.63-4.051 11.786.368 8.47.368 8.47-7.366 35.358-5.893 35.358 5.893 1.841 6.261.736 9.576-23.571 9.576-23.571 2.21-22.466-.368-27.623-5.893-5.156-5.893-5.156z" transform="translate(-96.594 -69)" fill="#3f3d56"/><path d="M926.65 712.996s-3.683 12.522 1.473 12.89 2.21-12.154 2.21-12.154z" transform="translate(-96.594 -69)" fill="#a0616a"/><path d="M936.452 771.081s-1.29-.967-1.935-.322-2.903 13.223-3.225 13.546-9.999 5.16-7.741 5.483 10.966.645 12.256 0 4.838-6.773 4.838-6.773v5.483h.645s.645-5.806 2.258-7.418-1.29-7.096-1.29-7.096.645-3.548.322-3.548-6.128.645-6.128.645z" transform="translate(-96.594 -69)" fill="#cdb950"/><path d="M926.878 641.265a2.15 2.15 0 01.932-.66 1.946 1.946 0 011.015.088 10.36 10.36 0 015.666 4.12 3.18 3.18 0 001.142 1.235 6.723 6.723 0 01.922.352c.862.569.348 1.888-.147 2.793a14.105 14.105 0 00-1.689 7.615 2.177 2.177 0 00.388 1.291 2.298 2.298 0 001.53.611 37.796 37.796 0 005.39.288c1.763-.031 3.719-.281 4.86-1.624 1.229-1.444 1.036-3.656.237-5.375s-2.097-3.155-3.02-4.81a28.216 28.216 0 01-2.06-5.478 22.941 22.941 0 00-3.045-6.794 9.107 9.107 0 00-6.115-3.92c-3.346-.373-6.431 1.687-9.12 3.713-3.02 2.274-6.234 5.087-6.476 8.86-.197 3.056 1.639 5.82 2.597 8.73 1.48 4.49.86 9.367.225 14.052 2.727-1.634 5.812-3.902 5.633-7.076-.12-2.141-1.736-3.85-2.742-5.745-2.765-5.208.388-8.7 3.877-12.266z" transform="translate(-96.594 -69)" fill="#2f2e41"/><path d="M1035.642 678.908a26.49 26.49 0 003.504-13.429c0-12.136-7.516-21.974-16.786-21.974s-16.786 9.838-16.786 21.974a26.49 26.49 0 003.503 13.43 27.488 27.488 0 000 26.857 27.487 27.487 0 000 26.858 27.487 27.487 0 000 26.858 26.49 26.49 0 00-3.503 13.429c0 12.136 7.515 21.974 16.786 21.974s16.786-9.838 16.786-21.974a26.49 26.49 0 00-3.504-13.43 27.487 27.487 0 000-26.857 27.487 27.487 0 000-26.858 27.488 27.488 0 000-26.858z" transform="translate(-96.594 -69)" fill="#3f3d56"/><ellipse cx="925.765" cy="569.622" rx="16.786" ry="21.975" fill="#3f3d56"/><ellipse cx="925.765" cy="542.764" rx="16.786" ry="21.975" fill="#3f3d56"/><path d="M1085.199 427.967a80.586 80.586 0 006.25-9.202l-44.106-7.243 47.703.354a80.547 80.547 0 001.535-63.71l-63.999 33.2 59.022-43.386a80.412 80.412 0 10-132.803 89.987 80.452 80.452 0 00-9.17 14.664l57.254 29.745-61.048-20.489a80.454 80.454 0 0012.964 75.507 80.406 80.406 0 10126.397 0 80.417 80.417 0 000-99.427z" transform="translate(-96.594 -69)" fill="#f2f2f2"/><path d="M941.594 477.68a80.06 80.06 0 0017.207 49.714 80.406 80.406 0 10126.397 0c10.777-13.681-143.604-58.738-143.604-49.713z" transform="translate(-96.594 -69)" fill="#f2f2f2"/><path d="M1085.199 427.967a80.586 80.586 0 006.25-9.202l-44.106-7.243 47.703.354a80.547 80.547 0 001.535-63.71l-63.999 33.2 59.022-43.386a80.412 80.412 0 10-132.803 89.987 80.452 80.452 0 00-9.17 14.664l57.254 29.745-61.048-20.489a80.454 80.454 0 0012.964 75.507 80.406 80.406 0 10126.397 0 80.417 80.417 0 000-99.427z" transform="translate(-96.594 -69)" fill="#57b894"/><path d="M941.594 477.68a80.06 80.06 0 0017.207 49.714 80.406 80.406 0 10126.397 0c10.777-13.681-143.604-58.738-143.604-49.713z" transform="translate(-96.594 -69)" opacity=".1"/><path d="M190.642 678.908a26.49 26.49 0 003.504-13.429c0-12.136-7.516-21.974-16.786-21.974s-16.786 9.838-16.786 21.974a26.49 26.49 0 003.503 13.43 27.488 27.488 0 000 26.857 27.487 27.487 0 000 26.858 27.487 27.487 0 000 26.858 26.49 26.49 0 00-3.503 13.429c0 12.136 7.515 21.974 16.786 21.974s16.786-9.838 16.786-21.974a26.49 26.49 0 00-3.504-13.43 27.487 27.487 0 000-26.857 27.487 27.487 0 000-26.858 27.488 27.488 0 000-26.858z" transform="translate(-96.594 -69)" fill="#3f3d56"/><ellipse cx="80.765" cy="569.622" rx="16.786" ry="21.975" fill="#3f3d56"/><ellipse cx="80.765" cy="542.764" rx="16.786" ry="21.975" fill="#3f3d56"/><path d="M240.199 427.967a80.586 80.586 0 006.25-9.202l-44.106-7.243 47.703.354a80.547 80.547 0 001.535-63.71l-63.999 33.2 59.022-43.386a80.412 80.412 0 10-132.803 89.987 80.452 80.452 0 00-9.17 14.664l57.254 29.745-61.048-20.489a80.454 80.454 0 0012.964 75.507 80.406 80.406 0 10126.397 0 80.417 80.417 0 000-99.427z" transform="translate(-96.594 -69)" fill="#f2f2f2"/><path d="M96.594 477.68a80.06 80.06 0 0017.207 49.714 80.406 80.406 0 10126.397 0c10.777-13.681-143.604-58.738-143.604-49.713z" transform="translate(-96.594 -69)" fill="#f2f2f2"/><path d="M240.199 427.967a80.586 80.586 0 006.25-9.202l-44.106-7.243 47.703.354a80.547 80.547 0 001.535-63.71l-63.999 33.2 59.022-43.386a80.412 80.412 0 10-132.803 89.987 80.452 80.452 0 00-9.17 14.664l57.254 29.745-61.048-20.489a80.454 80.454 0 0012.964 75.507 80.406 80.406 0 10126.397 0 80.417 80.417 0 000-99.427z" transform="translate(-96.594 -69)" fill="#57b894"/><path d="M96.594 477.68a80.06 80.06 0 0017.207 49.714 80.406 80.406 0 10126.397 0c10.777-13.681-143.604-58.738-143.604-49.713z" transform="translate(-96.594 -69)" opacity=".1"/><path fill="#57b894" d="M579.452 354.556l-39.896 39.896-18.903-18.902-7.359 7.359 26.237 26.237 47.281-47.231-7.36-7.359zm127-91l-39.896 39.896-18.903-18.902-7.359 7.359 26.237 26.237 47.281-47.231-7.36-7.359z"/></svg>