<svg id="f62fb22a-6085-4612-8ae6-3595732df09a" data-name="Layer 1" xmlns="http://www.w3.org/2000/svg" width="920.418" height="560.803"><path fill="#f2f2f2" d="M84.209 392.402h163v6h-163zm369 0h163v6h-163zm251 0h163v6h-163z"/><path d="M1007.956 471.117a19.8 19.8 0 00-4.148 2.867 19.742 19.742 0 00-4.217-2.867 19.8 19.8 0 00-4.148 2.867 19.742 19.742 0 00-4.216-2.867s-6.501 3.197-6.483 7.105q0 .146.013.292c.222 2.558 6.944 3.21 10.637 2.004a15.247 15.247 0 008.364 0c3.677 1.225 10.535.523 10.736-2.064q.01-.146.01-.292c-.018-3.908-6.548-7.045-6.548-7.045z" transform="translate(-139.79 -169.598)" fill="#f2f2f2"/><path fill="#3f3d56" d="M6.972 167.108l-5.768-4.614 32.297-28.836h81.896v25.376l-53.059 35.757-55.366-27.683z"/><path fill="#ccc" d="M130.329 149.833v-15.599h-10.873v3.82l-4.059-4.396-26.529 28.836-10.381 6.921L62.39 287.016l24.275 24.275h56.416V163.648l-12.752-13.815z"/><path fill="#f2f2f2" d="M1.204 162.494h87.663v148.797H1.204z"/><path fill="#ccc" d="M35.232 274.957h16.149v36.334H35.232z"/><path fill="#3f3d56" d="M17.93 285.338v-5.767h-6.921v5.767h6.921zm-.577 4.614h-6.344v5.768h6.921v-5.768h-.577zm5.19-10.381h6.921v5.767h-6.921zm0 10.381h6.921v5.767h-6.921zm42.679-4.614v-5.767h-6.921v5.767h6.921zm-.577 4.614h-6.344v5.768h6.921v-5.768h-.577zm5.191-10.381h6.921v5.767h-6.921zm0 10.381h6.921v5.767h-6.921zm43.831-119.96v-5.768h-6.921v5.768h6.921zm-.576 4.614h-6.345v5.767h6.921v-5.767h-.576zm5.19-10.382h6.921v5.767h-6.921zm0 10.382h6.921v5.767h-6.921zm-4.614 27.683v-5.767h-6.921v5.767h6.921zm-.576 4.614h-6.345v5.767h6.921v-5.767h-.576zm5.19-10.381h6.921v5.767h-6.921zm0 10.381h6.921v5.767h-6.921zm-4.614 27.683v-5.767h-6.921v5.767h6.921zm-.576 4.614h-6.345v5.767h6.921V239.2h-.576zm5.19-10.381h6.921v5.767h-6.921zm0 10.381h6.921v5.767h-6.921zm-4.614 27.683v-5.767h-6.921v5.767h6.921zm-.576 4.614h-6.345v5.767h6.921v-5.767h-.576zm5.19-10.381h6.921v5.767h-6.921zm0 10.381h6.921v5.767h-6.921zM11.009 169.992H77.91v13.842H11.009zm0 27.683H77.91v13.842H11.009zm0 27.683H77.91V239.2H11.009zm0 27.683H77.91v13.842H11.009z"/><path d="M277.995 471.953a19.8 19.8 0 00-4.148 2.867 19.742 19.742 0 00-4.216-2.867 19.8 19.8 0 00-4.148 2.867 19.742 19.742 0 00-4.216-2.867s-6.501 3.198-6.483 7.105q0 .147.013.292c.222 2.558 6.944 3.21 10.636 2.004a15.247 15.247 0 008.365 0c3.676 1.225 10.535.524 10.736-2.064q.01-.145.01-.292c-.018-3.907-6.549-7.045-6.549-7.045z" transform="translate(-139.79 -169.598)" fill="#cdb950"/><path fill="#3f3d56" d="M108.177 167.108l-5.768-4.614 32.297-28.836h81.896v25.376l-53.059 35.757-55.366-27.683z"/><path fill="#ccc" d="M231.534 149.833v-15.599h-10.873v3.82l-4.059-4.396-26.529 28.836-10.381 6.921-16.097 117.601 24.275 24.275h56.416V163.648l-12.752-13.815z"/><path fill="#f2f2f2" d="M102.409 162.494h87.663v148.797h-87.663z"/><path fill="#ccc" d="M136.437 274.957h16.149v36.334h-16.149z"/><path fill="#3f3d56" d="M119.135 285.338v-5.767h-6.921v5.767h6.921zm-.577 4.614h-6.344v5.768h6.921v-5.768h-.577zm5.19-10.381h6.921v5.767h-6.921zm0 10.381h6.921v5.767h-6.921zm42.679-4.614v-5.767h-6.921v5.767h6.921zm-.577 4.614h-6.344v5.768h6.921v-5.768h-.577zm5.191-10.381h6.921v5.767h-6.921zm0 10.381h6.921v5.767h-6.921zm43.831-119.96v-5.768h-6.921v5.768h6.921zm-.576 4.614h-6.345v5.767h6.921v-5.767h-.576zm5.19-10.382h6.921v5.767h-6.921zm0 10.382h6.921v5.767h-6.921zm-4.614 27.683v-5.767h-6.921v5.767h6.921zm-.576 4.614h-6.345v5.767h6.921v-5.767h-.576zm5.19-10.381h6.921v5.767h-6.921zm0 10.381h6.921v5.767h-6.921zm-4.614 27.683v-5.767h-6.921v5.767h6.921zm-.576 4.614h-6.345v5.767h6.921V239.2h-.576zm5.19-10.381h6.921v5.767h-6.921zm0 10.381h6.921v5.767h-6.921zm-4.614 27.683v-5.767h-6.921v5.767h6.921zm-.576 4.614h-6.345v5.767h6.921v-5.767h-.576zm5.19-10.381h6.921v5.767h-6.921zm0 10.381h6.921v5.767h-6.921zM112.214 169.992h66.901v13.842h-66.901zm0 27.683h66.901v13.842h-66.901zm0 27.683h66.901V239.2h-66.901zm0 27.683h66.901v13.842h-66.901z"/><circle cx="121.748" cy="28.641" r="28.641" fill="#ff6584"/><path fill="#3f3d56" d="M302.512 200.449h2.793v110.319h-2.793z"/><path d="M472.35 402.154q.009 1.82-.033 3.623c-1.002 43.427-53.066 43.667-54.468.25q-.058-1.801-.067-3.622c-.224-48.543 26.879-88.02 26.879-88.02s27.465 39.226 27.69 87.769z" transform="translate(-139.79 -169.598)" fill="#e6e6e6"/><path d="M435.382 471.709a19.8 19.8 0 00-4.148 2.867 19.742 19.742 0 00-4.216-2.867 19.8 19.8 0 00-4.148 2.867 19.742 19.742 0 00-4.216-2.867s-6.502 3.197-6.484 7.105q.001.146.014.291c.222 2.559 6.944 3.21 10.636 2.005a15.247 15.247 0 008.364 0c3.677 1.225 10.536.523 10.736-2.065q.011-.145.01-.291c-.017-3.908-6.548-7.045-6.548-7.045z" transform="translate(-139.79 -169.598)" fill="#ccc"/><path fill="#3f3d56" d="M373.739 263.999l-3.46-5.767 32.297-52.775h83.049v8.074l-29.99 57.389-34.604 6.921-47.292-13.842z"/><path fill="#ccc" d="M499.921 246.794v-43.139h-10.873v5.691l-3.423-3.889-27.683 52.775-4.614 4.614-5.767 23.069 10.381 25.376h53.059v-51.906l-11.08-12.591z"/><path fill="#f2f2f2" d="M370.279 258.232h87.663v53.059h-87.663z"/><path fill="#3f3d56" d="M427.375 274.957h18.455v16.149h-18.455z"/><path fill="#ccc" d="M403.729 274.381h16.149v36.911h-16.149z"/><path fill="#3f3d56" d="M385.274 280.148v-5.767h-6.921v5.767h6.921zm-.577 4.614h-6.344v5.767h6.921v-5.767h-.577zm5.191-10.381h6.921v5.767h-6.921zm0 10.381h6.921v5.767h-6.921zm92.854-3.201v-5.767h-6.921v5.767h6.921zm-.577 4.614h-6.344v5.767h6.921v-5.767h-.577zm5.19-10.381h6.921v5.767h-6.921zm0 10.381h6.921v5.767h-6.921zm-77.319-59.027l-.911-1.517 8.498-13.886h21.851v2.124l-7.89 15.1-9.105 1.821-12.443-3.642z"/><path fill="#ccc" d="M439.474 211.745l-7.283 13.886-1.214 1.214-1.518 6.07 2.732 6.676h13.96v-13.657l-6.677-14.189z"/><path fill="#f2f2f2" d="M409.125 225.631h23.065v13.961h-23.065z"/><path fill="#3f3d56" d="M418.897 231.647v-2.754h-3.304v2.754h3.304zm-.275 2.203h-3.029v2.753h3.304v-2.753h-.275zm2.478-4.957h3.304v2.754H421.1zm0 4.957h3.304v2.754H421.1zm57.19 30.149l-3.461-5.767 32.297-52.775h83.05v8.074l-29.99 57.389-34.604 6.921-47.292-13.842z"/><path fill="#ccc" d="M604.472 246.794v-43.139h-10.873v5.691l-3.423-3.889-27.683 52.775-4.614 4.614-5.768 23.069 10.382 25.376h53.059v-51.906l-11.08-12.591z"/><path fill="#f2f2f2" d="M474.829 258.232h87.663v53.059h-87.663z"/><path fill="#3f3d56" d="M531.926 274.957h18.455v16.149h-18.455z"/><path fill="#ccc" d="M508.28 274.38h16.149v36.911H508.28z"/><path fill="#3f3d56" d="M489.824 280.148v-5.768h-6.921v5.768h6.921zm-.576 4.614h-6.345v5.767h6.921v-5.767h-.576zm5.19-10.382h6.921v5.767h-6.921zm0 10.382h6.921v5.767h-6.921zm92.854-4.037v-5.768h-6.921v5.768h6.921zm-.577 4.613h-6.344v5.768h6.921v-5.768h-.577zm5.191-10.381h6.921v5.767h-6.921zm0 10.381h6.921v5.767h-6.921zm-12.411-21.339l-3.461-5.767 32.297-52.775h83.05v8.074l-29.99 57.389-34.604 6.921-47.292-13.842z"/><path fill="#ccc" d="M705.677 246.794v-43.139h-10.873v5.691l-3.423-3.889-27.683 52.775-4.614 4.614-5.768 23.069 10.382 25.376h53.059v-51.906l-11.08-12.591z"/><path fill="#f2f2f2" d="M576.034 258.232h87.663v53.059h-87.663z"/><path fill="#3f3d56" d="M633.131 274.957h18.455v16.149h-18.455z"/><path fill="#ccc" d="M609.485 274.38h16.149v36.911h-16.149z"/><path fill="#3f3d56" d="M591.029 280.148v-5.768h-6.92v5.768h6.92zm-.576 4.614h-6.344v5.767h6.92v-5.767h-.576zm5.19-10.382h6.921v5.767h-6.921zm0 10.382h6.921v5.767h-6.921zm92.854-4.037v-5.768h-6.921v5.768h6.921zm-.576 4.613h-6.345v5.768h6.921v-5.768h-.576zm5.19-10.381h6.921v5.767h-6.921zm0 10.381h6.921v5.767h-6.921zm-181.034-57.353l-.91-1.518 8.497-13.886h21.852v2.125l-7.891 15.1-9.105 1.82-12.443-3.641z"/><path fill="#ccc" d="M541.516 212.581l-7.284 13.886-1.214 1.214-1.517 6.07 2.731 6.677h13.961v-13.657l-6.677-14.19z"/><path fill="#f2f2f2" d="M511.167 226.467h23.065v13.961h-23.065z"/><path fill="#3f3d56" d="M520.939 232.483v-2.754h-3.305v2.754h3.305zm-.276 2.203h-3.029v2.754h3.305v-2.754h-.276zm2.479-4.957h3.304v2.754h-3.304zm0 4.957h3.304v2.754h-3.304zm90.977-7.538l-.911-1.517 8.498-13.886h21.851v2.124l-7.891 15.1-9.104 1.821-12.443-3.642z"/><path fill="#ccc" d="M643.557 211.745l-7.284 13.886-1.214 1.214-1.517 6.07 2.731 6.676h13.961v-13.657l-6.677-14.189z"/><path fill="#f2f2f2" d="M613.208 225.631h23.065v13.961h-23.065z"/><path fill="#3f3d56" d="M622.98 231.647v-2.754h-3.304v2.754h3.304zm-.275 2.203h-3.029v2.753h3.304v-2.753h-.275zm2.478-4.957h3.304v2.754h-3.304zm0 4.957h3.304v2.754h-3.304zm58.862 30.149l-3.46-5.767 32.297-52.775h83.05v8.074l-29.991 57.389-34.604 6.921-47.292-13.842z"/><path fill="#ccc" d="M810.228 212.859v-9.204h-10.874v5.691l-3.422-3.889-27.684 52.775-4.614 4.614-5.767 23.069 10.381 25.376h53.06v-51.906l-11.08-46.526z"/><path fill="#f2f2f2" d="M680.585 258.232h87.663v53.059h-87.663z"/><path fill="#3f3d56" d="M737.682 274.957h18.455v16.149h-18.455z"/><path fill="#ccc" d="M714.035 274.38h16.149v36.911h-16.149z"/><path fill="#3f3d56" d="M695.58 280.148v-5.768h-6.921v5.768h6.921zm-.577 4.614h-6.344v5.767h6.921v-5.767h-.577zm5.191-10.382h6.921v5.767h-6.921zm0 10.382h6.921v5.767h-6.921zm92.854-4.037v-5.768h-6.921v5.768h6.921zm-.577 4.613h-6.344v5.768h6.921v-5.768h-.577zm5.191-10.381h6.921v5.767h-6.921zm0 10.381h6.921v5.767h-6.921zm-81.502-57.353l-.91-1.518 8.497-13.886h21.852v2.125l-7.891 15.1-9.105 1.82-12.443-3.641z"/><path fill="#ccc" d="M745.599 212.581l-7.284 13.886-1.214 1.214-1.518 6.07 2.732 6.677h13.96v-13.657l-6.676-14.19z"/><path fill="#f2f2f2" d="M715.25 226.467h23.065v13.961H715.25z"/><path fill="#3f3d56" d="M725.021 232.483v-2.754h-3.304v2.754h3.304zm-.275 2.203h-3.029v2.754h3.304v-2.754h-.275zm2.478-4.957h3.304v2.754h-3.304zm0 4.957h3.304v2.754h-3.304zM.836 310.718h919.582v1.673H.836zM0 467.126h919.582v1.673H0z"/><path fill="#3f3d56" d="M857.478 200.433h2.792v110.286h-2.792z"/><path d="M1027.308 402.127q.008 1.82-.034 3.623c-1.001 43.414-53.05 43.654-54.451.25q-.059-1.801-.067-3.621c-.224-48.529 26.87-87.994 26.87-87.994s27.458 39.214 27.682 87.742z" transform="translate(-139.79 -169.598)" fill="#e6e6e6"/><path fill="#3f3d56" d="M278.059 418.723h29.428v4.671h-29.428z"/><path d="M660.046 589.368l-6.072 1.405-230.752.123-2.075-4.835a48.798 48.798 0 01-3.588-26.386c.994-6.677 3.484-13.311 9.14-16.193l10.24-68.203 127.664-.229 49.393 39.838s23.299-.418 35.957 15.34c4.006 4.991 6.947 11.604 7.737 20.371l.5 8.198z" transform="translate(-139.79 -169.598)" fill="#cdb950"/><circle cx="469.573" cy="418.629" r="28.494" fill="#3f3d56"/><circle cx="469.573" cy="418.629" r="14.997" fill="#ccc"/><circle cx="328.973" cy="418.704" r="28.494" fill="#3f3d56"/><circle cx="328.973" cy="418.704" r="14.997" fill="#ccc"/><path fill="#fff" d="M454.581 340.633l-68.928.03h-8.414l-14.207.01v-1.036l-.01-12.492-.01-14.027h9.451l8.414-.01 14.905-.01h8.414l17.207-.01 33.178 27.545zm-102.764.05l-36.428.02-.01-7.148v-12.491l-.01-7.916h5.334l8.414-.01 22.69-.01.01 27.555z"/><path fill="#3f3d56" d="M363.043 361.23h4.671v8.875h-4.671z"/><path transform="rotate(89.969 595.082 365.78)" fill="#3f3d56" d="M577.798 516.074h4.671v8.875h-4.671z"/><path d="M439.17 331.106h.513a9.763 9.763 0 019.763 9.762 9.763 9.763 0 01-9.763 9.763h-.514v-19.525z" fill="#3f3d56"/><path d="M658.19 558.797a15.09 15.09 0 01-8.237-28.57c4.006 4.992 6.947 11.605 7.737 20.372z" transform="translate(-139.79 -169.598)" fill="#3f3d56"/><path fill="#f2f2f2" d="M380.877 313.108l-17.845 26.529-.01-12.492 9.441-14.027 8.414-.01zm-51.76.03l-13.738 20.417v-12.491l5.324-7.916 8.414-.01zm75.079-.04l-18.543 27.565h-8.414l18.543-27.565h8.414z"/><path transform="rotate(-179.969 760.647 443.423)" fill="#3f3d56" d="M821.627 526.785h17.876v2.837h-17.876z"/><path d="M692.383 527.42l3.688.853 140.169.075 1.26-2.936a29.642 29.642 0 002.18-16.028c-.604-4.056-2.117-8.086-5.553-9.837l-6.22-41.43-77.548-.138-30.003 24.2s-14.153-.255-21.842 9.317a22.468 22.468 0 00-4.7 12.374l-.303 4.98z" transform="translate(-139.79 -169.598)" fill="#3f3d56"/><circle cx="583.379" cy="357.129" r="17.308" fill="#3f3d56"/><circle cx="583.379" cy="357.129" r="9.11" fill="#ccc"/><circle cx="668.785" cy="357.175" r="17.308" fill="#3f3d56"/><circle cx="668.785" cy="357.175" r="9.11" fill="#ccc"/><path fill="#fff" d="M592.486 309.751l41.869.019h5.111l8.63.006v-.63l.006-7.588.006-8.521h-5.741l-5.111-.006-9.053-.006h-5.112l-10.452-.006-20.153 16.732zm62.422.031l22.128.012.006-4.342v-7.588l.006-4.808h-3.24l-5.111-.006-13.782-.006-.007 16.738z"/><path transform="rotate(-179.969 716.543 409.776)" fill="#3f3d56" d="M785.043 491.861h2.837v5.391h-2.837z"/><path transform="rotate(90.031 755.784 330.937)" fill="#3f3d56" d="M739.507 482.899h2.837v5.391h-2.837z"/><path d="M735.396 473.562h.312a5.93 5.93 0 015.93 5.93 5.93 5.93 0 01-5.93 5.93h-.312v-11.86z" transform="rotate(-179.969 668.599 394.712)" fill="#3f3d56"/><path d="M693.511 508.85a9.166 9.166 0 005.003-17.354 22.468 22.468 0 00-4.7 12.374z" transform="translate(-139.79 -169.598)" fill="#3f3d56"/><path fill="#f2f2f2" d="M637.256 293.031l10.84 16.115.006-7.588-5.735-8.521-5.111-.006zm31.441.019l8.345 12.402v-7.588l-3.234-4.808-5.111-.006zm-45.606-.025l11.264 16.745h5.111l-11.263-16.745h-5.112z"/><path d="M299.932 656.557s0 31.718 7.28 40.038c0 0 1.56 4.16 2.08 5.72a21.86 21.86 0 001.04 2.6v2.08s14.039-1.56 15.599-5.2l-2.6-3.12s-.52-.52 0-2.08a1.068 1.068 0 00-1.04-1.56l-3.64-8.32.52-34.318-2.6-47.317-22.359-1.04z" transform="translate(-139.79 -169.598)" fill="#2f2e41"/><path d="M311.371 703.875s-3.64 10.919 0 11.439 35.358 1.04 34.838-3.12-10.919-3.64-10.919-3.64l-10.92-6.76zm-32.238-98.795a23.594 23.594 0 003.12 14.039c4.16 7.28 1.56 31.718 1.56 31.718l-36.919 32.239s7.28 12.479 9.88 11.959 43.678-33.798 43.678-33.798l16.119-54.078z" transform="translate(-139.79 -169.598)" fill="#2f2e41"/><path d="M247.402 681.698s-11.172 2.771-9.662 6.124 18.05 30.421 21.285 27.755-2.771-11.171-2.771-11.171l-.136-12.842z" transform="translate(-139.79 -169.598)" fill="#2f2e41"/><circle cx="159.621" cy="338.766" r="11.959" fill="#ffb8b8"/><path d="M290.002 512.584l.529 15.39 10.063 3.976s.987-15.758 2.38-16.632-12.972-2.734-12.972-2.734z" transform="translate(-139.79 -169.598)" fill="#ffb8b8"/><path d="M303.052 533.843s-14.04-14.04-17.68-13.52-3.64 2.08-3.64 3.12 1.04 1.56 0 2.08-2.08 0-2.08 1.56-9.359 17.16-6.239 34.319 6.76 25.478 5.2 34.838-.52 11.44-.52 11.44 38.998 3.12 39.518-.52-1.56-1.56 1.04-4.16 1.56-2.6 1.56-4.16-11.44-64.997-17.16-64.997z" transform="translate(-139.79 -169.598)" fill="#575a89"/><path d="M295.772 604.56s6.24 15.079 10.92 11.439-2.08-16.12-2.08-16.12z" transform="translate(-139.79 -169.598)" fill="#ffb8b8"/><path d="M280.693 534.883s-12.217 1.399-7.669 23.838 22.228 48.438 22.228 48.438l11.96-5.72-15.6-30.678 3.64-19.239s2.08-18.199-14.56-16.639z" transform="translate(-139.79 -169.598)" fill="#575a89"/><path opacity=".2" d="M151.561 401.423l17.159 28.598-1.559 1.56-15.6-30.158zm-9.082 13.327l13.762 22.551h-4.68l-9.082-22.551z"/><path d="M293.999 515.55a17.215 17.215 0 013.14-.935 8.217 8.217 0 005.46-9.212 4.7 4.7 0 01-.197-1.518 2.9 2.9 0 012.417-2.13 23.792 23.792 0 003.365-.64 5.098 5.098 0 002.975-4.088 8.444 8.444 0 00-1.128-5.09l-.403 1.16a4.297 4.297 0 01-1.315-1.968 2.71 2.71 0 00-2.065 1.66c-.646.381-.74-1.184-1.453-1.414a1.282 1.282 0 00-.891.22c-1.439.67-3.11.097-4.653-.275a17.513 17.513 0 00-8.13-.01 9.731 9.731 0 00-4.804 2.472 11.529 11.529 0 00-2.248 3.863 22.25 22.25 0 00-1.813 10.805 15.295 15.295 0 003.604 8.104c1.03 1.186 4.387 5.323 6.228 4.617 2.313-.886-.815-4.18 1.91-5.62z" transform="translate(-139.79 -169.598)" fill="#2f2e41"/><path transform="rotate(-69.123 113.866 660.065)" opacity=".2" d="M287.663 643.03h38.397v.74h-38.397z"/><circle cx="163.187" cy="366.36" r=".74" fill="#d0cde1"/><path fill="#d0cde1" d="M163.187 366.36l6.287 20.342"/><path d="M309.265 556.67a.37.37 0 01-.353-.26l-6.287-20.342a.37.37 0 11.706-.219l6.288 20.342a.37.37 0 01-.354.479z" transform="translate(-139.79 -169.598)" fill="#d0cde1"/><circle cx="833.834" cy="345.693" r="12.489" fill="#2f2e41"/><path d="M955.873 590.944l-1.893 3.787s-6.06 9.846-1.894 10.982 5.491-7.384 5.491-7.384l.758-4.545z" transform="translate(-139.79 -169.598)" fill="#a0616a"/><path fill="#d0cde1" d="M823.656 402.033l-4.734 12.496-4.733 8.71 5.87 3.787 4.733-8.331 5.681-13.065-6.817-3.597z"/><path d="M976.89 630.139l9.468 10.035 16.662 28.213 7.196-2.272-8.521-16.852s-4.923-12.876-7.385-14.58-6.627-12.875-6.627-12.875l-4.544-3.598zm-19.502 5.491l-.757 3.219s-2.462 10.035-6.249 14.58l-9.089 15.715-6.816-2.272 13.444-31.81z" transform="translate(-139.79 -169.598)" fill="#a0616a"/><circle cx="831.703" cy="350.057" r="10.225" fill="#a0616a"/><path d="M979.541 524.673l1.326 10.982-8.52 4.166s0-9.468-2.273-11.93zm26.699 70.816l.946 3.218s6.249 12.308.947 12.308-6.249-11.36-6.249-11.36l-.568-2.841z" transform="translate(-139.79 -169.598)" fill="#a0616a"/><path d="M962.69 582.613l1.325 9.278-16.094 33.893-.947 9.846 30.106 3.787 6.627-18.367 10.604 13.633-6.06-14.011s-1.893-9.468-1.325-11.93-.379-14.768-2.083-17.798-22.153-8.331-22.153-8.331zm39.194 85.774l9.089-3.03 2.84 4.545s5.491 1.515 5.302 5.49a67.66 67.66 0 00.947 10.794l-3.977.378-1.514-7.763-7.764 9.278s-13.822.757-14.39-1.515 9.846-4.733 9.846-4.733l1.704-8.142zm-67.975-2.651l8.331 2.651v1.893s2.462 3.787 2.083 7.006-2.083 10.982-2.083 10.982h-4.355l.19-7.195-8.71 7.195s-15.527-1.136-15.527-3.597 11.929-4.166 11.929-4.166z" transform="translate(-139.79 -169.598)" fill="#2f2e41"/><path d="M971.778 537.548s7.763-7.763 11.361-5.87v3.409s5.302 2.462 5.491 6.248 5.68 38.248 5.68 38.248l12.876 44.876s-3.976 6.248-18.556-.758l-9.089-30.863s9.657 34.84 4.923 34.271-23.29-43.739-23.29-43.739l1.326-20.45s-3.03-8.898 3.03-14.957z" transform="translate(-139.79 -169.598)" fill="#d0cde1"/><path d="M985.033 538.685s3.218 1.136 5.49 6.059 13.634 39.573 13.634 39.573l3.03 12.308-8.521 2.082-4.166-12.686-15.527-28.78s-2.461-15.148 6.06-18.556z" transform="translate(-139.79 -169.598)" fill="#d0cde1"/><path d="M984.284 511.498a7.177 7.177 0 00-3.38-5.836c1.04-2.087 1.968-4.47 1.283-6.698a5.112 5.112 0 00-3.85-3.446 10.033 10.033 0 00-2.993.04l-4.665.528a10.19 10.19 0 00-4.373 1.178 5.066 5.066 0 00-.585 8.13c-3.265 2.61-5.446 4.593-6.931 8.5a14.035 14.035 0 018.815-3.156 8.403 8.403 0 018.83 7.7 15.55 15.55 0 00.286 3.26 2.398 2.398 0 002.357 1.875c-.15.021-1.075-2.756-.424-4.038l.01-.02a1.22 1.22 0 01.663-.57 1.91 1.91 0 012.538 1.328c.363 1.391.942 3.166 1.448 2.695.663-.617.384-6.057.563-6.9a15.835 15.835 0 00.408-4.57z" transform="translate(-139.79 -169.598)" fill="#2f2e41"/><path d="M980.853 505.625s-10.262.67-15.17-.223" transform="translate(-139.79 -169.598)" fill="#d0cde1"/><path d="M980.271 504.252c1.04-2.087 1.968-4.47 1.283-6.698a5.06 5.06 0 00-1.79-2.516 5.124 5.124 0 012.737 3.084c.685 2.228-.244 4.61-1.283 6.698-.824-.123 1.122.535-.947-.568z" transform="translate(-139.79 -169.598)" fill="#2f2e41"/><path opacity=".2" d="M837.194 387.737l14.769 26.13 5.681 14.201-7.953-13.633-12.497-26.698z"/><path d="M278.82 705.85s-4.63 10.077-8.39 12.903c-3.806-2.833-8.526-12.904-8.526-12.904s-4.63 10.078-8.39 12.904c-3.806-2.833-8.526-12.904-8.526-12.904s-13.149 13.443-13.113 19.809a4.668 4.668 0 00.027.475c.45 4.168 14.044 5.23 21.512 3.265a38.02 38.02 0 0016.915 0c7.437 1.996 21.308.853 21.713-3.363a4.67 4.67 0 00.022-.475c-.037-6.366-13.245-19.71-13.245-19.71z" transform="translate(-139.79 -169.598)" fill="#cdb950"/><path d="M555.059 705.85s-4.63 10.077-8.39 12.903c-3.805-2.833-8.526-12.904-8.526-12.904s-4.63 10.078-8.389 12.904c-3.806-2.833-8.526-12.904-8.526-12.904s-13.15 13.443-13.113 19.809a4.668 4.668 0 00.027.475c.449 4.168 14.043 5.23 21.511 3.265a38.02 38.02 0 0016.916 0c7.436 1.996 21.307.853 21.713-3.363a4.67 4.67 0 00.021-.475c-.036-6.366-13.244-19.71-13.244-19.71z" transform="translate(-139.79 -169.598)" fill="#e6e6e6"/><path d="M829.51 705.85s-4.63 10.077-8.388 12.903c-3.807-2.833-8.527-12.904-8.527-12.904s-4.63 10.078-8.39 12.904c-3.805-2.833-8.526-12.904-8.526-12.904s-13.149 13.443-13.112 19.809a4.67 4.67 0 00.027.475c.448 4.168 14.043 5.23 21.511 3.265a38.02 38.02 0 0016.916 0c7.436 1.996 21.307.853 21.712-3.363a4.67 4.67 0 00.022-.475c-.036-6.366-13.245-19.71-13.245-19.71z" transform="translate(-139.79 -169.598)" fill="#cdb950"/><path d="M295.405 216.89l-.12.065a8.96 8.96 0 01-8.544.03l-.226-.12a9.003 9.003 0 00-8.534.029l-.113.061a8.96 8.96 0 01-8.544.03l-.234-.125a8.952 8.952 0 00-8.45-.015c-3.975 2.14-9.347 5.799-9.323 9.931a4.806 4.806 0 00.027.49c.463 4.29 14.46 5.384 22.149 3.362a39.145 39.145 0 0017.416 0c7.656 2.054 21.938.877 22.356-3.463a4.81 4.81 0 00.022-.49c-.024-4.134-5.444-7.755-9.442-9.865a8.943 8.943 0 00-8.44.08zm260.123 45.355l-.12.066a8.96 8.96 0 01-8.544.03l-.226-.121a9.003 9.003 0 00-8.534.029l-.113.062a8.96 8.96 0 01-8.544.03l-.234-.126a8.952 8.952 0 00-8.45-.015c-3.975 2.14-9.347 5.8-9.323 9.931a4.806 4.806 0 00.028.49c.462 4.29 14.459 5.384 22.148 3.362a39.145 39.145 0 0017.416 0c7.657 2.055 21.938.878 22.356-3.463a4.81 4.81 0 00.022-.49c-.024-4.134-5.443-7.754-9.442-9.864a8.943 8.943 0 00-8.44.079zm179.785-43.388l-.122.066a8.96 8.96 0 01-8.543.03l-.226-.121a9.003 9.003 0 00-8.534.03l-.113.06a8.96 8.96 0 01-8.543.03l-.235-.125a8.952 8.952 0 00-8.45-.015c-3.974 2.14-9.347 5.8-9.323 9.931a4.808 4.808 0 00.028.49c.462 4.291 14.459 5.384 22.148 3.362a39.145 39.145 0 0017.416 0c7.657 2.055 21.938.878 22.356-3.463a4.807 4.807 0 00.022-.49c-.023-4.134-5.443-7.754-9.442-9.864a8.943 8.943 0 00-8.44.079z" transform="translate(-139.79 -169.598)" fill="#e6e6e6"/><path fill="#3f3d56" d="M0 559.131h919.582v1.673H0z"/></svg>